<svg width="2892" height="929" viewBox="0 0 2892 929" fill="none" xmlns="http://www.w3.org/2000/svg">
<path d="M769.115 417C764.808 417 761.363 415.852 758.779 413.555C756.482 410.971 754.903 407.813 754.042 404.081L702.795 128.036C702.795 127.175 702.652 126.457 702.365 125.883C702.365 125.309 702.365 124.878 702.365 124.591C702.365 122.007 703.226 119.854 704.948 118.132C706.958 116.409 709.111 115.548 711.408 115.548H749.305C756.482 115.548 760.502 118.419 761.363 124.161L797.107 319.243L835.865 193.064C836.726 190.767 838.162 188.47 840.171 186.174C842.468 183.59 845.77 182.298 850.076 182.298H873.331C877.925 182.298 881.226 183.59 883.236 186.174C885.246 188.47 886.538 190.767 887.112 193.064L926.301 318.813L962.044 124.161C962.906 118.419 966.925 115.548 974.102 115.548H1012C1014.3 115.548 1016.31 116.409 1018.03 118.132C1019.75 119.854 1020.61 122.007 1020.61 124.591C1020.61 124.878 1020.61 125.309 1020.61 125.883C1020.61 126.457 1020.47 127.175 1020.18 128.036L968.935 404.081C968.36 407.813 966.781 410.971 964.197 413.555C961.614 415.852 958.168 417 953.862 417H925.009C920.702 417 917.257 415.852 914.673 413.555C912.376 411.258 910.797 408.818 909.936 406.234L861.704 262.398L813.471 406.234C812.323 408.818 810.6 411.258 808.304 413.555C806.007 415.852 802.562 417 797.968 417H769.115ZM1156.22 421.306C1133.25 421.306 1113.88 417.287 1098.08 409.248C1082.58 401.21 1070.67 389.869 1062.34 375.227C1054.3 360.585 1049.71 343.503 1048.56 323.98C1048.27 318.813 1048.13 312.497 1048.13 305.032C1048.13 297.567 1048.27 291.251 1048.56 286.084C1049.71 266.274 1054.45 249.192 1062.77 234.837C1071.38 220.195 1083.44 208.854 1098.95 200.816C1114.74 192.777 1133.83 188.758 1156.22 188.758C1178.62 188.758 1197.56 192.777 1213.07 200.816C1228.86 208.854 1240.92 220.195 1249.24 234.837C1257.85 249.192 1262.74 266.274 1263.88 286.084C1264.17 291.251 1264.31 297.567 1264.31 305.032C1264.31 312.497 1264.17 318.813 1263.88 323.98C1262.74 343.503 1258 360.585 1249.67 375.227C1241.63 389.869 1229.72 401.21 1213.93 409.248C1198.43 417.287 1179.19 421.306 1156.22 421.306ZM1156.22 378.672C1171.44 378.672 1183.21 373.935 1191.53 364.461C1199.86 354.7 1204.45 340.489 1205.32 321.827C1205.6 317.521 1205.75 311.922 1205.75 305.032C1205.75 298.142 1205.6 292.543 1205.32 288.237C1204.45 269.863 1199.86 255.795 1191.53 246.033C1183.21 236.272 1171.44 231.391 1156.22 231.391C1141.01 231.391 1129.23 236.272 1120.91 246.033C1112.58 255.795 1107.99 269.863 1107.13 288.237C1106.84 292.543 1106.7 298.142 1106.7 305.032C1106.7 311.922 1106.84 317.521 1107.13 321.827C1107.99 340.489 1112.58 354.7 1120.91 364.461C1129.23 373.935 1141.01 378.672 1156.22 378.672ZM1322.36 417C1319.49 417 1317.05 415.995 1315.04 413.985C1313.03 411.976 1312.03 409.535 1312.03 406.664V203.83C1312.03 200.672 1313.03 198.088 1315.04 196.079C1317.05 194.069 1319.49 193.064 1322.36 193.064H1357.25C1360.12 193.064 1362.56 194.069 1364.57 196.079C1366.86 198.088 1368.01 200.672 1368.01 203.83V221.487C1374.62 212.3 1383.08 205.266 1393.42 200.385C1404.04 195.504 1416.24 193.064 1430.03 193.064H1447.68C1450.84 193.064 1453.28 194.069 1455 196.079C1457.01 198.088 1458.02 200.529 1458.02 203.399V234.406C1458.02 237.277 1457.01 239.717 1455 241.727C1453.28 243.737 1450.84 244.742 1447.68 244.742H1414.09C1400.31 244.742 1389.54 248.617 1381.79 256.369C1374.33 264.121 1370.6 274.743 1370.6 288.237V406.664C1370.6 409.535 1369.59 411.976 1367.58 413.985C1365.57 415.995 1362.99 417 1359.83 417H1322.36ZM1571.35 421.306C1556.43 421.306 1543.22 418.866 1531.74 413.985C1520.54 408.818 1511.21 401.64 1503.74 392.453C1496.28 383.266 1490.54 372.5 1486.52 360.155C1482.5 347.522 1480.2 333.742 1479.63 318.813C1479.34 313.645 1479.2 309.051 1479.2 305.032C1479.2 300.726 1479.34 295.988 1479.63 290.821C1480.2 276.466 1482.35 263.116 1486.09 250.771C1490.11 238.425 1495.85 227.659 1503.31 218.472C1511.06 208.998 1520.54 201.677 1531.74 196.509C1543.22 191.341 1556.43 188.758 1571.35 188.758C1586.86 188.758 1599.92 191.485 1610.54 196.94C1621.45 202.108 1630.5 208.854 1637.67 217.18V121.577C1637.67 118.706 1638.54 116.265 1640.26 114.256C1642.27 112.246 1644.85 111.241 1648.01 111.241H1684.61C1687.49 111.241 1689.93 112.246 1691.94 114.256C1693.95 116.265 1694.95 118.706 1694.95 121.577V406.664C1694.95 409.535 1693.95 411.976 1691.94 413.985C1689.93 415.995 1687.49 417 1684.61 417H1650.59C1647.44 417 1644.85 415.995 1642.84 413.985C1641.12 411.976 1640.26 409.535 1640.26 406.664V390.731C1633.08 399.631 1623.89 406.952 1612.7 412.694C1601.79 418.435 1588.01 421.306 1571.35 421.306ZM1587.29 375.227C1599.35 375.227 1608.96 372.5 1616.14 367.045C1623.32 361.59 1628.63 354.7 1632.08 346.374C1635.52 337.761 1637.39 329.005 1637.67 320.105C1637.96 314.937 1638.1 309.482 1638.1 303.74C1638.1 297.711 1637.96 292.113 1637.67 286.945C1637.39 278.332 1635.38 270.15 1631.65 262.398C1627.91 254.359 1622.46 247.756 1615.28 242.588C1608.1 237.421 1598.77 234.837 1587.29 234.837C1575.23 234.837 1565.61 237.564 1558.44 243.019C1551.54 248.187 1546.52 255.077 1543.36 263.69C1540.2 272.303 1538.34 281.777 1537.76 292.113C1537.48 300.726 1537.48 309.338 1537.76 317.951C1538.34 328.287 1540.2 337.761 1543.36 346.374C1546.52 354.987 1551.54 362.021 1558.44 367.476C1565.61 372.643 1575.23 375.227 1587.29 375.227ZM1767.85 417C1764.98 417 1762.54 415.995 1760.53 413.985C1758.52 411.976 1757.51 409.535 1757.51 406.664V126.314C1757.51 123.156 1758.52 120.572 1760.53 118.562C1762.54 116.552 1764.98 115.548 1767.85 115.548H1883.26C1905.66 115.548 1925.18 119.136 1941.83 126.314C1958.48 133.204 1971.4 143.827 1980.59 158.182C1989.78 172.249 1994.37 189.906 1994.37 211.151C1994.37 232.683 1989.78 250.483 1980.59 264.551C1971.4 278.332 1958.48 288.667 1941.83 295.558C1925.18 302.448 1905.66 305.893 1883.26 305.893H1819.1V406.664C1819.1 409.535 1818.09 411.976 1816.08 413.985C1814.36 415.995 1811.92 417 1808.76 417H1767.85ZM1818.24 258.092H1881.11C1897.76 258.092 1910.54 254.216 1919.44 246.464C1928.34 238.425 1932.79 226.654 1932.79 211.151C1932.79 196.796 1928.63 185.312 1920.3 176.699C1911.97 167.799 1898.91 163.349 1881.11 163.349H1818.24V258.092ZM2046.56 417C2043.68 417 2041.24 415.995 2039.23 413.985C2037.23 411.976 2036.22 409.535 2036.22 406.664V203.83C2036.22 200.672 2037.23 198.088 2039.23 196.079C2041.24 194.069 2043.68 193.064 2046.56 193.064H2081.44C2084.31 193.064 2086.75 194.069 2088.76 196.079C2091.06 198.088 2092.2 200.672 2092.2 203.83V221.487C2098.81 212.3 2107.28 205.266 2117.61 200.385C2128.24 195.504 2140.44 193.064 2154.22 193.064H2171.87C2175.03 193.064 2177.47 194.069 2179.19 196.079C2181.2 198.088 2182.21 200.529 2182.21 203.399V234.406C2182.21 237.277 2181.2 239.717 2179.19 241.727C2177.47 243.737 2175.03 244.742 2171.87 244.742H2138.28C2124.5 244.742 2113.74 248.617 2105.99 256.369C2098.52 264.121 2094.79 274.743 2094.79 288.237V406.664C2094.79 409.535 2093.78 411.976 2091.77 413.985C2089.76 415.995 2087.18 417 2084.02 417H2046.56ZM2309.32 421.306C2277.45 421.306 2252.18 412.119 2233.52 393.745C2214.86 375.371 2204.81 349.245 2203.38 315.367C2203.09 312.497 2202.95 308.908 2202.95 304.601C2202.95 300.008 2203.09 296.419 2203.38 293.835C2204.53 272.303 2209.41 253.642 2218.02 237.851C2226.92 222.061 2239.12 210.003 2254.63 201.677C2270.13 193.064 2288.36 188.758 2309.32 188.758C2332.57 188.758 2352.09 193.638 2367.89 203.399C2383.68 212.874 2395.59 226.224 2403.63 243.45C2411.67 260.388 2415.69 280.055 2415.69 302.448V311.492C2415.69 314.363 2414.68 316.803 2412.67 318.813C2410.66 320.822 2408.08 321.827 2404.92 321.827H2261.95C2261.95 321.827 2261.95 322.258 2261.95 323.119C2261.95 323.98 2261.95 324.698 2261.95 325.272C2262.23 335.321 2264.1 344.651 2267.54 353.264C2271.28 361.59 2276.59 368.337 2283.48 373.505C2290.66 378.672 2299.13 381.256 2308.89 381.256C2316.93 381.256 2323.67 380.108 2329.13 377.811C2334.58 375.227 2339.03 372.356 2342.48 369.198C2345.92 366.04 2348.36 363.456 2349.8 361.447C2352.38 358.001 2354.39 355.992 2355.83 355.418C2357.55 354.556 2359.99 354.126 2363.15 354.126H2400.18C2403.05 354.126 2405.35 354.987 2407.07 356.71C2409.08 358.432 2409.94 360.585 2409.66 363.169C2409.37 367.763 2406.93 373.361 2402.34 379.964C2398.03 386.568 2391.71 393.027 2383.39 399.344C2375.06 405.66 2364.58 410.971 2351.95 415.277C2339.61 419.297 2325.39 421.306 2309.32 421.306ZM2261.95 285.653H2357.12V284.361C2357.12 273.164 2355.25 263.403 2351.52 255.077C2347.79 246.751 2342.33 240.148 2335.16 235.267C2327.98 230.387 2319.37 227.946 2309.32 227.946C2299.27 227.946 2290.66 230.387 2283.48 235.267C2276.3 240.148 2270.85 246.751 2267.11 255.077C2263.67 263.403 2261.95 273.164 2261.95 284.361V285.653ZM2546.24 421.306C2529.01 421.306 2514.23 419.297 2501.88 415.277C2489.82 411.258 2479.92 406.234 2472.17 400.205C2464.41 394.176 2458.67 388.147 2454.94 382.118C2451.21 376.089 2449.2 371.064 2448.91 367.045C2448.62 363.887 2449.48 361.447 2451.49 359.724C2453.79 357.714 2456.23 356.71 2458.82 356.71H2492.84C2493.99 356.71 2494.99 356.853 2495.85 357.14C2496.71 357.427 2497.86 358.289 2499.3 359.724C2503.03 362.882 2506.9 366.184 2510.92 369.629C2515.23 373.074 2520.25 376.089 2526 378.672C2531.74 380.969 2538.92 382.118 2547.53 382.118C2558.73 382.118 2568.06 379.964 2575.52 375.658C2583.27 371.064 2587.15 364.605 2587.15 356.279C2587.15 350.25 2585.43 345.369 2581.98 341.637C2578.82 337.905 2572.79 334.603 2563.89 331.732C2554.99 328.574 2542.36 325.272 2526 321.827C2509.92 318.095 2496.57 313.358 2485.95 307.616C2475.32 301.874 2467.43 294.696 2462.26 286.084C2457.09 277.471 2454.51 267.422 2454.51 255.938C2454.51 244.742 2457.81 234.119 2464.41 224.071C2471.3 213.735 2481.35 205.266 2494.56 198.662C2508.05 192.059 2524.7 188.758 2544.51 188.758C2560.02 188.758 2573.51 190.767 2584.99 194.787C2596.48 198.519 2605.95 203.256 2613.42 208.998C2621.17 214.74 2627.05 220.625 2631.07 226.654C2635.09 232.396 2637.25 237.421 2637.53 241.727C2637.82 244.885 2636.96 247.469 2634.95 249.479C2632.94 251.201 2630.64 252.063 2628.06 252.063H2596.19C2594.76 252.063 2593.46 251.775 2592.32 251.201C2591.17 250.627 2590.02 249.909 2588.87 249.048C2585.71 246.177 2582.27 243.162 2578.54 240.004C2574.8 236.846 2570.21 234.119 2564.75 231.822C2559.59 229.238 2552.7 227.946 2544.08 227.946C2533.17 227.946 2524.85 230.387 2519.11 235.267C2513.36 239.861 2510.49 245.746 2510.49 252.924C2510.49 257.804 2511.79 262.111 2514.37 265.843C2517.24 269.288 2522.84 272.59 2531.16 275.748C2539.49 278.906 2552.12 282.208 2569.06 285.653C2588.3 289.098 2603.51 294.266 2614.71 301.156C2626.19 307.759 2634.23 315.511 2638.83 324.411C2643.71 333.024 2646.15 342.642 2646.15 353.264C2646.15 366.184 2642.27 377.811 2634.52 388.147C2627.05 398.482 2615.86 406.664 2600.93 412.694C2586.29 418.435 2568.06 421.306 2546.24 421.306ZM2775.44 421.306C2758.21 421.306 2743.43 419.297 2731.08 415.277C2719.02 411.258 2709.12 406.234 2701.37 400.205C2693.62 394.176 2687.87 388.147 2684.14 382.118C2680.41 376.089 2678.4 371.064 2678.11 367.045C2677.82 363.887 2678.69 361.447 2680.7 359.724C2682.99 357.714 2685.43 356.71 2688.02 356.71H2722.04C2723.19 356.71 2724.19 356.853 2725.05 357.14C2725.91 357.427 2727.06 358.289 2728.5 359.724C2732.23 362.882 2736.11 366.184 2740.13 369.629C2744.43 373.074 2749.46 376.089 2755.2 378.672C2760.94 380.969 2768.12 382.118 2776.73 382.118C2787.93 382.118 2797.26 379.964 2804.72 375.658C2812.47 371.064 2816.35 364.605 2816.35 356.279C2816.35 350.25 2814.63 345.369 2811.18 341.637C2808.02 337.905 2801.99 334.603 2793.09 331.732C2784.19 328.574 2771.56 325.272 2755.2 321.827C2739.12 318.095 2725.77 313.358 2715.15 307.616C2704.52 301.874 2696.63 294.696 2691.46 286.084C2686.29 277.471 2683.71 267.422 2683.71 255.938C2683.71 244.742 2687.01 234.119 2693.62 224.071C2700.51 213.735 2710.55 205.266 2723.76 198.662C2737.25 192.059 2753.91 188.758 2773.72 188.758C2789.22 188.758 2802.71 190.767 2814.2 194.787C2825.68 198.519 2835.15 203.256 2842.62 208.998C2850.37 214.74 2856.26 220.625 2860.28 226.654C2864.29 232.396 2866.45 237.421 2866.74 241.727C2867.02 244.885 2866.16 247.469 2864.15 249.479C2862.14 251.201 2859.84 252.063 2857.26 252.063H2825.39C2823.96 252.063 2822.67 251.775 2821.52 251.201C2820.37 250.627 2819.22 249.909 2818.07 249.048C2814.91 246.177 2811.47 243.162 2807.74 240.004C2804 236.846 2799.41 234.119 2793.96 231.822C2788.79 229.238 2781.9 227.946 2773.28 227.946C2762.38 227.946 2754.05 230.387 2748.31 235.267C2742.57 239.861 2739.69 245.746 2739.69 252.924C2739.69 257.804 2740.99 262.111 2743.57 265.843C2746.44 269.288 2752.04 272.59 2760.37 275.748C2768.69 278.906 2781.32 282.208 2798.26 285.653C2817.5 289.098 2832.71 294.266 2843.91 301.156C2855.39 307.759 2863.43 315.511 2868.03 324.411C2872.91 333.024 2875.35 342.642 2875.35 353.264C2875.35 366.184 2871.47 377.811 2863.72 388.147C2856.26 398.482 2845.06 406.664 2830.13 412.694C2815.49 418.435 2797.26 421.306 2775.44 421.306Z" fill="white"/>
<path d="M729.926 807C727.055 807 724.615 805.995 722.605 803.985C720.595 801.976 719.59 799.535 719.59 796.664V516.314C719.59 513.156 720.595 510.572 722.605 508.562C724.615 506.552 727.055 505.548 729.926 505.548H845.339C867.733 505.548 887.255 509.136 903.907 516.314C920.559 523.204 933.478 533.827 942.665 548.182C951.852 562.249 956.446 579.906 956.446 601.151C956.446 622.683 951.852 640.483 942.665 654.551C933.478 668.332 920.559 678.667 903.907 685.558C887.255 692.448 867.733 695.893 845.339 695.893H781.173V796.664C781.173 799.535 780.168 801.976 778.158 803.985C776.436 805.995 773.995 807 770.837 807H729.926ZM780.312 648.092H843.186C859.838 648.092 872.613 644.216 881.513 636.464C890.413 628.425 894.863 616.654 894.863 601.151C894.863 586.796 890.7 575.312 882.375 566.699C874.049 557.799 860.986 553.349 843.186 553.349H780.312V648.092ZM1091.82 811.306C1059.95 811.306 1034.68 802.119 1016.02 783.745C997.362 765.371 987.313 739.245 985.878 705.367C985.591 702.497 985.447 698.908 985.447 694.601C985.447 690.008 985.591 686.419 985.878 683.835C987.026 662.303 991.907 643.642 1000.52 627.851C1009.42 612.061 1021.62 600.003 1037.12 591.677C1052.63 583.064 1070.86 578.758 1091.82 578.758C1115.07 578.758 1134.59 583.638 1150.38 593.399C1166.17 602.874 1178.09 616.224 1186.13 633.45C1194.17 650.388 1198.19 670.055 1198.19 692.448V701.492C1198.19 704.363 1197.18 706.803 1195.17 708.813C1193.16 710.822 1190.58 711.827 1187.42 711.827H1044.45C1044.45 711.827 1044.45 712.258 1044.45 713.119C1044.45 713.98 1044.45 714.698 1044.45 715.272C1044.73 725.321 1046.6 734.651 1050.04 743.264C1053.78 751.59 1059.09 758.337 1065.98 763.505C1073.16 768.672 1081.62 771.256 1091.39 771.256C1099.42 771.256 1106.17 770.108 1111.63 767.811C1117.08 765.227 1121.53 762.356 1124.98 759.198C1128.42 756.04 1130.86 753.456 1132.3 751.447C1134.88 748.001 1136.89 745.992 1138.33 745.418C1140.05 744.556 1142.49 744.126 1145.65 744.126H1182.68C1185.55 744.126 1187.85 744.987 1189.57 746.71C1191.58 748.432 1192.44 750.585 1192.16 753.169C1191.87 757.763 1189.43 763.361 1184.84 769.964C1180.53 776.568 1174.21 783.027 1165.89 789.344C1157.56 795.66 1147.08 800.971 1134.45 805.277C1122.11 809.297 1107.89 811.306 1091.82 811.306ZM1044.45 675.653H1139.62V674.361C1139.62 663.164 1137.75 653.403 1134.02 645.077C1130.29 636.751 1124.83 630.148 1117.66 625.267C1110.48 620.387 1101.87 617.946 1091.82 617.946C1081.77 617.946 1073.16 620.387 1065.98 625.267C1058.8 630.148 1053.35 636.751 1049.61 645.077C1046.17 653.403 1044.45 663.164 1044.45 674.361V675.653ZM1254.23 807C1251.36 807 1248.92 805.995 1246.91 803.985C1244.9 801.976 1243.9 799.535 1243.9 796.664V593.399C1243.9 590.529 1244.9 588.088 1246.91 586.079C1248.92 584.069 1251.36 583.064 1254.23 583.064H1287.82C1290.7 583.064 1293.14 584.069 1295.15 586.079C1297.16 588.088 1298.16 590.529 1298.16 593.399V608.041C1304.19 600.003 1312.23 593.256 1322.28 587.801C1332.61 582.059 1344.81 579.045 1358.88 578.758C1391.61 578.183 1414.43 590.959 1427.35 617.085C1433.96 605.601 1443.43 596.414 1455.78 589.524C1468.41 582.346 1482.33 578.758 1497.55 578.758C1512.48 578.758 1525.97 582.203 1538.03 589.093C1550.38 595.983 1559.99 606.462 1566.88 620.53C1574.06 634.311 1577.65 651.824 1577.65 673.069V796.664C1577.65 799.535 1576.64 801.976 1574.64 803.985C1572.63 805.995 1570.19 807 1567.31 807H1532C1529.13 807 1526.69 805.995 1524.68 803.985C1522.67 801.976 1521.67 799.535 1521.67 796.664V676.514C1521.67 663.595 1519.8 653.403 1516.07 645.938C1512.33 638.187 1507.31 632.732 1500.99 629.574C1494.68 626.416 1487.64 624.837 1479.89 624.837C1473.58 624.837 1467.26 626.416 1460.94 629.574C1454.63 632.732 1449.46 638.187 1445.44 645.938C1441.42 653.403 1439.41 663.595 1439.41 676.514V796.664C1439.41 799.535 1438.41 801.976 1436.4 803.985C1434.39 805.995 1431.95 807 1429.08 807H1393.76C1390.61 807 1388.02 805.995 1386.01 803.985C1384.29 801.976 1383.43 799.535 1383.43 796.664V676.514C1383.43 663.595 1381.42 653.403 1377.4 645.938C1373.38 638.187 1368.21 632.732 1361.9 629.574C1355.58 626.416 1348.83 624.837 1341.66 624.837C1335.05 624.837 1328.59 626.559 1322.28 630.004C1315.96 633.162 1310.79 638.474 1306.77 645.938C1302.75 653.403 1300.74 663.595 1300.74 676.514V796.664C1300.74 799.535 1299.74 801.976 1297.73 803.985C1295.72 805.995 1293.28 807 1290.41 807H1254.23ZM1715.6 811.306C1698.09 811.306 1682.88 807.431 1669.96 799.679C1657.32 791.64 1647.56 780.443 1640.67 766.089C1633.78 751.447 1630.34 734.221 1630.34 714.411V593.399C1630.34 590.529 1631.34 588.088 1633.35 586.079C1635.36 584.069 1637.8 583.064 1640.67 583.064H1678.57C1681.73 583.064 1684.17 584.069 1685.89 586.079C1687.9 588.088 1688.9 590.529 1688.9 593.399V711.827C1688.9 747.427 1704.55 765.227 1735.84 765.227C1750.77 765.227 1762.54 760.49 1771.16 751.016C1780.06 741.542 1784.51 728.479 1784.51 711.827V593.399C1784.51 590.529 1785.51 588.088 1787.52 586.079C1789.53 584.069 1791.97 583.064 1794.84 583.064H1832.74C1835.61 583.064 1838.05 584.069 1840.06 586.079C1842.07 588.088 1843.08 590.529 1843.08 593.399V796.664C1843.08 799.535 1842.07 801.976 1840.06 803.985C1838.05 805.995 1835.61 807 1832.74 807H1797.86C1794.7 807 1792.12 805.995 1790.11 803.985C1788.38 801.976 1787.52 799.535 1787.52 796.664V779.008C1779.77 789.056 1770.15 796.952 1758.67 802.694C1747.19 808.435 1732.83 811.306 1715.6 811.306ZM1910.73 807C1907.86 807 1905.42 805.995 1903.41 803.985C1901.4 801.976 1900.39 799.535 1900.39 796.664V511.577C1900.39 508.706 1901.4 506.265 1903.41 504.256C1905.42 502.246 1907.86 501.241 1910.73 501.241H1946.47C1949.34 501.241 1951.78 502.246 1953.79 504.256C1955.8 506.265 1956.81 508.706 1956.81 511.577V796.664C1956.81 799.535 1955.8 801.976 1953.79 803.985C1951.78 805.995 1949.34 807 1946.47 807H1910.73ZM2078.96 811.306C2064.03 811.306 2050.54 808.435 2038.48 802.694C2026.42 796.664 2016.8 788.769 2009.62 779.008C2002.73 768.96 1999.29 757.763 1999.29 745.418C1999.29 725.321 2007.33 709.387 2023.41 697.616C2039.77 685.558 2061.3 677.519 2088 673.5L2147 664.887V655.843C2147 643.785 2143.99 634.454 2137.96 627.851C2131.93 621.248 2121.59 617.946 2106.95 617.946C2096.62 617.946 2088.15 620.1 2081.54 624.406C2075.23 628.425 2070.49 633.88 2067.33 640.771C2065.03 644.503 2061.73 646.369 2057.43 646.369H2023.41C2020.25 646.369 2017.81 645.508 2016.08 643.785C2014.65 642.063 2013.93 639.766 2013.93 636.895C2014.22 632.301 2016.08 626.703 2019.53 620.1C2022.97 613.496 2028.43 607.18 2035.89 601.151C2043.36 594.835 2052.98 589.524 2064.75 585.217C2076.52 580.911 2090.73 578.758 2107.38 578.758C2125.47 578.758 2140.68 581.054 2153.03 585.648C2165.66 589.954 2175.71 595.84 2183.18 603.304C2190.64 610.769 2196.09 619.525 2199.54 629.574C2202.98 639.622 2204.71 650.245 2204.71 661.442V796.664C2204.71 799.535 2203.7 801.976 2201.69 803.985C2199.68 805.995 2197.24 807 2194.37 807H2159.49C2156.33 807 2153.75 805.995 2151.74 803.985C2150.02 801.976 2149.15 799.535 2149.15 796.664V779.869C2145.42 785.324 2140.4 790.492 2134.08 795.373C2127.77 799.966 2120.01 803.842 2110.83 807C2101.93 809.871 2091.3 811.306 2078.96 811.306ZM2093.6 770.395C2103.65 770.395 2112.69 768.242 2120.73 763.935C2129.06 759.629 2135.52 753.026 2140.11 744.126C2144.99 734.939 2147.43 723.455 2147.43 709.674V700.63L2104.37 707.521C2087.43 710.105 2074.8 714.268 2066.47 720.009C2058.14 725.751 2053.98 732.785 2053.98 741.111C2053.98 747.427 2055.85 752.882 2059.58 757.476C2063.6 761.782 2068.62 765.084 2074.65 767.381C2080.68 769.39 2087 770.395 2093.6 770.395Z" fill="white"/>
<path fill-rule="evenodd" clip-rule="evenodd" d="M261.902 59.95C236.291 64.9786 209.863 85.5032 198.093 109.507C189.821 126.373 187.421 138.55 187.421 163.636V182.914L149.798 182.947C105.158 182.988 91.7815 185.271 68.2653 196.864C45.2495 208.208 25.0911 228.367 13.7415 251.383C-0.789913 280.849 -0.418563 274.714 0.24791 473.828C0.832296 648.653 0.896794 651.18 5.07153 665.926C24.8234 735.702 73.8766 784.436 143.078 803.032C157.919 807.019 163.417 807.331 218.693 807.327C284.087 807.323 289.681 806.614 320.057 794.483C342.481 785.528 362.395 772.225 381.168 753.657C406.777 728.328 422.08 702.079 432.314 665.926C436.489 651.18 436.553 648.653 437.138 473.828C437.804 274.435 438.181 280.607 423.519 251.317C411.896 228.103 391.913 208.098 369.12 196.864C345.583 185.261 332.241 182.988 287.416 182.947L249.618 182.914L250.281 161.553C250.994 138.474 252.691 134.126 264.394 125.382C269.56 121.522 272.902 121.311 343.779 120.375C414.655 119.439 417.998 119.228 423.163 115.368C433.366 107.746 436.616 101.447 436.616 89.2986C436.616 79.9157 435.682 76.8278 430.983 70.6677C421.26 57.9194 420.484 57.81 341.398 58.0504C302.397 58.1676 266.624 59.0217 261.902 59.95ZM187.421 280.147V314.839L178.624 319.506C166.6 325.885 155.071 338.938 147.677 354.546L141.491 367.601V433.072V498.543L147.677 511.598C156.285 529.768 167.365 541.083 185.154 549.874C199.109 556.771 200.956 557.174 218.693 557.174C236.43 557.174 238.277 556.771 252.231 549.874C270.021 541.083 281.101 529.768 289.708 511.598L295.894 498.543V433.072V367.601L289.708 354.546C282.315 338.938 270.785 325.885 258.761 319.506L249.964 314.839V280.003V245.166L289.542 245.813C327.002 246.425 329.644 246.718 338.892 251.285C351.342 257.432 363.058 269.14 369.234 281.609L374.073 291.381L374.603 461.824C375.201 653.617 375.537 648.28 360.976 677.367C344.643 709.991 311.763 735.43 276.35 742.839C257.266 746.832 180.026 746.826 161.161 742.83C125.604 735.298 92.1411 709.463 76.2864 677.3C62.0716 648.467 62.4078 653.58 62.3687 465.876C62.3394 316.358 62.6775 297.354 65.5095 289.007C72.0882 269.627 86.1135 255.44 105.343 248.714C112.082 246.357 122.668 245.618 150.775 245.547L187.421 245.454V280.147ZM229.53 375.33L234.329 380.126V433.072V486.017L229.53 490.813C226.507 493.839 222.5 495.611 218.693 495.611C214.885 495.611 210.879 493.839 207.855 490.813L203.057 486.017V433.072V380.126L207.855 375.33C210.879 372.305 214.885 370.532 218.693 370.532C222.5 370.532 226.507 372.305 229.53 375.33Z" fill="white"/>
</svg>
