<svg width="3255" height="592" viewBox="0 0 3255 592" fill="none" xmlns="http://www.w3.org/2000/svg">
<g clip-path="url(#clip0_161_17)">
<path d="M642.941 534C635.846 534 630.211 531.913 626.038 527.74C621.864 523.566 619.36 518.766 618.525 513.34L550.286 113.295C549.868 112.46 549.66 111.625 549.66 110.791C549.66 109.956 549.66 109.33 549.66 108.912C549.66 105.573 550.912 102.652 553.416 100.148C556.337 97.2261 559.468 95.7653 562.807 95.7653H640.437C652.123 95.7653 658.592 100.356 659.844 109.538L700.538 354.324L745.613 209.706C746.865 206.367 748.952 202.82 751.874 199.064C754.795 194.89 759.595 192.803 766.273 192.803H811.348C818.444 192.803 823.452 194.89 826.374 199.064C829.295 202.82 831.173 206.367 832.008 209.706L877.084 353.698L917.777 109.538C919.029 100.356 925.498 95.7653 937.184 95.7653H1014.81C1018.57 95.7653 1021.7 97.2261 1024.21 100.148C1026.71 102.652 1027.96 105.573 1027.96 108.912C1027.96 109.33 1027.96 109.956 1027.96 110.791C1027.96 111.625 1027.96 112.46 1027.96 113.295L959.722 513.34C958.887 518.766 956.383 523.566 952.209 527.74C948.036 531.913 942.401 534 935.306 534H875.831C868.736 534 863.31 532.122 859.554 528.366C855.798 524.609 853.294 521.062 852.042 517.723L788.811 338.673L725.58 517.723C724.327 521.062 721.823 524.609 718.067 528.366C714.728 532.122 709.511 534 702.416 534H642.941ZM1092.49 534C1087.9 534 1084.15 532.539 1081.22 529.618C1078.3 526.696 1076.84 522.94 1076.84 518.349V111.417C1076.84 106.826 1078.3 103.069 1081.22 100.148C1084.15 97.2261 1087.9 95.7653 1092.49 95.7653H1267.79C1302.43 95.7653 1332.48 101.191 1357.94 112.043C1383.82 122.477 1403.85 138.337 1418.04 159.622C1432.65 180.908 1439.95 207.828 1439.95 240.383C1439.95 272.52 1432.65 299.023 1418.04 319.891C1403.85 340.759 1383.82 356.202 1357.94 366.219C1332.48 376.236 1302.43 381.244 1267.79 381.244H1193.29V518.349C1193.29 522.94 1191.62 526.696 1188.28 529.618C1185.36 532.539 1181.6 534 1177.01 534H1092.49ZM1191.41 294.849H1264.66C1282.6 294.849 1296.79 290.258 1307.23 281.076C1318.08 271.894 1323.51 257.912 1323.51 239.131C1323.51 223.271 1318.91 209.915 1309.73 199.064C1300.55 188.212 1285.53 182.786 1264.66 182.786H1191.41V294.849Z" fill="white"/>
<path d="M1543.62 534C1539.45 534 1536.11 532.748 1533.6 530.244C1531.1 527.74 1529.85 524.401 1529.85 520.227V110.164C1529.85 105.573 1531.1 102.026 1533.6 99.5216C1536.11 97.0174 1539.45 95.7653 1543.62 95.7653H1695.75C1724.97 95.7653 1750.22 100.774 1771.5 110.791C1793.21 120.39 1809.9 134.789 1821.59 153.988C1833.69 173.187 1839.74 196.977 1839.74 225.358C1839.74 253.738 1833.69 277.528 1821.59 296.727C1809.9 315.926 1793.21 330.534 1771.5 340.551C1750.22 350.15 1724.97 354.95 1695.75 354.95H1569.29V520.227C1569.29 524.401 1568.04 527.74 1565.53 530.244C1563.03 532.748 1559.48 534 1554.89 534H1543.62ZM1569.29 317.387H1692.62C1728.93 317.387 1755.85 309.457 1773.38 293.597C1791.33 277.737 1800.3 254.991 1800.3 225.358C1800.3 195.725 1791.33 172.978 1773.38 157.118C1755.85 141.258 1728.93 133.328 1692.62 133.328H1569.29V317.387ZM1968.77 540.26C1928.28 540.26 1896.15 527.113 1872.36 500.819C1848.57 474.108 1835 439.258 1831.66 396.269C1831.25 390.009 1831.04 381.661 1831.04 371.227C1831.04 360.793 1831.25 352.446 1831.66 346.185C1833.75 317.804 1840.43 292.762 1851.7 271.059C1862.97 249.356 1878.41 232.453 1898.02 220.349C1918.06 208.246 1941.64 202.194 1968.77 202.194C1997.98 202.194 2022.82 208.663 2043.27 221.601C2063.72 234.54 2079.37 253.112 2090.22 277.32C2101.49 301.527 2107.12 330.325 2107.12 363.715V373.105C2107.12 377.279 2105.66 380.618 2102.74 383.122C2100.24 385.626 2096.9 386.878 2092.73 386.878H1869.85C1869.85 386.878 1869.85 387.713 1869.85 389.383C1869.85 391.052 1869.85 392.304 1869.85 393.139C1870.69 411.92 1875.07 429.867 1883 446.979C1890.93 463.674 1902.2 477.447 1916.81 488.298C1931.41 498.733 1948.73 503.95 1968.77 503.95C1986.71 503.95 2001.53 501.237 2013.22 495.811C2025.32 490.385 2034.92 484.542 2042.02 478.282C2049.11 471.604 2053.7 466.595 2055.79 463.256C2059.55 457.831 2062.47 454.7 2064.55 453.866C2066.64 452.614 2069.98 451.988 2074.57 451.988H2084.59C2088.34 451.988 2091.47 453.24 2093.98 455.744C2096.9 457.831 2098.15 460.752 2097.73 464.508C2097.32 470.352 2093.98 477.656 2087.72 486.42C2081.87 494.768 2073.32 503.115 2062.05 511.462C2051.2 519.81 2037.84 526.696 2021.98 532.122C2006.12 537.548 1988.38 540.26 1968.77 540.26ZM1869.85 351.82H2068.94V349.315C2068.94 328.447 2064.97 309.666 2057.04 292.971C2049.11 276.276 2037.63 263.129 2022.61 253.53C2007.58 243.513 1989.64 238.505 1968.77 238.505C1947.9 238.505 1929.95 243.513 1914.93 253.53C1900.32 263.129 1889.05 276.276 1881.12 292.971C1873.61 309.666 1869.85 328.447 1869.85 349.315V351.82ZM2140.87 534C2136.69 534 2133.36 532.748 2130.85 530.244C2128.35 527.74 2127.09 524.401 2127.09 520.227V222.227C2127.09 218.054 2128.35 214.715 2130.85 212.211C2133.36 209.706 2136.69 208.454 2140.87 208.454H2151.51C2155.68 208.454 2159.02 209.706 2161.53 212.211C2164.03 214.715 2165.28 218.054 2165.28 222.227V244.139C2175.72 230.783 2188.03 220.558 2202.22 213.463C2216.83 205.95 2234.36 202.194 2254.81 202.194C2301.55 202.194 2334.94 221.81 2354.98 261.042C2364.58 243.096 2378.56 228.905 2396.92 218.471C2415.7 207.62 2437.2 202.194 2461.41 202.194C2483.53 202.194 2503.35 207.411 2520.88 217.845C2538.83 227.862 2552.81 242.887 2562.83 262.921C2573.26 282.954 2578.48 307.996 2578.48 338.046V520.227C2578.48 524.401 2577.22 527.74 2574.72 530.244C2572.22 532.748 2568.88 534 2564.7 534H2554.06C2549.89 534 2546.55 532.748 2544.04 530.244C2541.54 527.74 2540.29 524.401 2540.29 520.227V344.307C2540.29 316.761 2536.32 295.475 2528.39 280.45C2520.46 265.007 2510.03 254.156 2497.09 247.895C2484.15 241.635 2470.17 238.505 2455.14 238.505C2442.62 238.505 2429.89 241.635 2416.96 247.895C2404.02 254.156 2393.17 265.007 2384.4 280.45C2376.05 295.475 2371.88 316.761 2371.88 344.307V520.227C2371.88 524.401 2370.63 527.74 2368.12 530.244C2365.62 532.748 2362.28 534 2358.11 534H2347.46C2343.29 534 2339.95 532.748 2337.45 530.244C2334.94 527.74 2333.69 524.401 2333.69 520.227V344.307C2333.69 316.761 2329.52 295.475 2321.17 280.45C2312.82 265.007 2302.18 254.156 2289.24 247.895C2276.3 241.635 2262.74 238.505 2248.55 238.505C2236.03 238.505 2223.3 241.635 2210.36 247.895C2197.42 254.156 2186.57 265.007 2177.8 280.45C2169.46 295.475 2165.28 316.552 2165.28 343.681V520.227C2165.28 524.401 2164.03 527.74 2161.53 530.244C2159.02 532.748 2155.68 534 2151.51 534H2140.87ZM2736.2 540.26C2707.82 540.26 2684.24 534.209 2665.45 522.105C2647.09 509.584 2633.32 492.681 2624.13 471.395C2615.37 450.109 2610.99 426.319 2610.99 400.025V222.227C2610.99 218.054 2612.24 214.715 2614.74 212.211C2617.25 209.706 2620.59 208.454 2624.76 208.454H2635.4C2639.58 208.454 2642.92 209.706 2645.42 212.211C2647.92 214.715 2649.18 218.054 2649.18 222.227V396.895C2649.18 468.265 2680.27 503.95 2742.46 503.95C2772.09 503.95 2795.88 494.559 2813.83 475.777C2831.77 456.579 2840.75 430.284 2840.75 396.895V222.227C2840.75 218.054 2842 214.715 2844.5 212.211C2847.01 209.706 2850.35 208.454 2854.52 208.454H2865.16C2869.34 208.454 2872.68 209.706 2875.18 212.211C2877.68 214.715 2878.94 218.054 2878.94 222.227V520.227C2878.94 524.401 2877.68 527.74 2875.18 530.244C2872.68 532.748 2869.34 534 2865.16 534H2854.52C2850.35 534 2847.01 532.748 2844.5 530.244C2842 527.74 2840.75 524.401 2840.75 520.227V490.803C2829.48 505.41 2815.91 517.305 2800.05 526.487C2784.61 535.669 2763.33 540.26 2736.2 540.26ZM2932.13 534C2927.95 534 2924.61 532.748 2922.11 530.244C2919.61 527.74 2918.35 524.401 2918.35 520.227V103.278C2918.35 99.1043 2919.61 95.7653 2922.11 93.2611C2924.61 90.7569 2927.95 89.5048 2932.13 89.5048H2942.77C2946.94 89.5048 2950.28 90.7569 2952.79 93.2611C2955.29 95.7653 2956.54 99.1043 2956.54 103.278V520.227C2956.54 524.401 2955.29 527.74 2952.79 530.244C2950.28 532.748 2946.94 534 2942.77 534H2932.13ZM3083.39 540.26C3063.35 540.26 3044.78 536.087 3027.67 527.74C3010.97 519.392 2997.41 508.332 2986.97 494.559C2976.54 480.368 2971.32 464.509 2971.32 446.979C2971.32 418.598 2982.8 395.852 3005.76 378.74C3028.71 361.628 3058.55 350.567 3095.28 345.559L3194.2 331.786V309.874C3194.2 287.754 3187.31 270.433 3173.54 257.912C3160.18 244.974 3138.69 238.505 3109.05 238.505C3087.35 238.505 3069.82 242.887 3056.47 251.652C3043.11 259.999 3033.93 271.059 3028.92 284.832C3026.83 291.093 3022.87 294.223 3017.02 294.223H3007.01C3002 294.223 2998.45 292.971 2996.36 290.467C2994.28 287.545 2993.23 284.206 2993.23 280.45C2993.23 274.607 2995.32 267.303 2999.49 258.538C3004.09 249.774 3010.97 241.217 3020.15 232.87C3029.34 224.105 3041.23 216.802 3055.84 210.958C3070.45 205.115 3088.19 202.194 3109.05 202.194C3133.68 202.194 3153.92 205.533 3169.78 212.211C3186.06 218.888 3198.58 227.653 3207.34 238.505C3216.53 248.939 3222.99 260.625 3226.75 273.563C3230.51 286.502 3232.39 299.231 3232.39 311.752V520.227C3232.39 524.401 3231.13 527.74 3228.63 530.244C3226.12 532.748 3222.79 534 3218.61 534H3207.97C3203.8 534 3200.46 532.748 3197.95 530.244C3195.45 527.74 3194.2 524.401 3194.2 520.227V490.803C3189.19 498.315 3182.09 505.828 3172.91 513.34C3163.73 520.853 3151.83 527.322 3137.23 532.748C3123.04 537.756 3105.09 540.26 3083.39 540.26ZM3089.65 503.95C3108.84 503.95 3126.37 499.776 3142.23 491.429C3158.09 483.081 3170.62 470.352 3179.8 453.24C3189.4 435.71 3194.2 413.798 3194.2 387.504V366.219L3113.44 377.488C3079.21 382.079 3053.34 390.009 3035.81 401.277C3018.28 412.546 3009.51 426.737 3009.51 443.849C3009.51 457.622 3013.48 468.891 3021.41 477.656C3029.34 486.42 3039.35 493.098 3051.46 497.689C3063.98 501.863 3076.71 503.95 3089.65 503.95Z" fill="white"/>
<path fill-rule="evenodd" clip-rule="evenodd" d="M241.161 6.56538C218.263 10.4774 194.634 26.4449 184.111 45.1188C176.715 58.24 174.57 67.7138 174.57 87.23V102.227L140.931 102.253C101.019 102.285 89.0599 104.061 68.0346 113.08C47.4567 121.905 29.4335 137.588 19.286 155.494C6.29376 178.417 6.62577 173.645 7.22165 328.549C7.74414 464.557 7.80181 466.523 11.5344 477.994C29.1941 532.278 73.0516 570.191 134.923 584.658C148.192 587.76 153.107 588.003 202.529 588C260.997 587.997 265.998 587.445 293.157 578.008C313.205 571.041 331.01 560.692 347.794 546.246C370.691 526.541 384.374 506.12 393.523 477.994C397.256 466.523 397.313 464.557 397.836 328.549C398.432 173.427 398.769 178.229 385.66 155.442C375.268 137.383 357.402 121.82 337.023 113.08C315.978 104.053 304.05 102.285 263.973 102.253L230.179 102.227L230.771 85.6092C231.409 67.6545 232.926 64.2715 243.389 57.4692C248.008 54.4663 250.996 54.3021 314.366 53.5738C377.735 52.8456 380.723 52.6814 385.342 49.6785C394.463 43.7489 397.369 38.8485 397.369 29.3976C397.369 22.098 396.534 19.6958 392.333 14.9034C383.64 4.98566 382.946 4.90051 312.237 5.08752C277.367 5.17875 245.383 5.84317 241.161 6.56538ZM174.57 177.872V204.861L166.704 208.491C155.954 213.454 145.646 223.609 139.035 235.751L133.505 245.907V296.842V347.776L139.035 357.932C146.731 372.068 156.637 380.871 172.543 387.71C185.019 393.075 186.671 393.389 202.529 393.389C218.387 393.389 220.038 393.075 232.515 387.71C248.42 380.871 258.327 372.068 266.022 357.932L271.553 347.776V296.842V245.907L266.022 235.751C259.412 223.609 249.104 213.454 238.353 208.491L230.488 204.861V177.759V150.657L265.874 151.161C299.365 151.637 301.728 151.865 309.997 155.418C321.128 160.2 331.602 169.309 337.124 179.009L341.451 186.611L341.925 319.21C342.459 468.419 342.76 464.266 329.741 486.895C315.138 512.275 285.741 532.066 254.079 537.83C237.016 540.937 167.957 540.932 151.091 537.823C119.3 531.963 89.3815 511.865 75.2062 486.843C62.497 464.412 62.7975 468.39 62.7626 322.362C62.7364 206.042 63.0387 191.257 65.5707 184.764C71.4526 169.687 83.9923 158.65 101.185 153.417C107.211 151.583 116.675 151.009 141.805 150.954L174.57 150.881V177.872ZM212.218 251.921L216.508 255.652V296.842V338.031L212.218 341.763C209.515 344.116 205.933 345.495 202.529 345.495C199.125 345.495 195.543 344.116 192.839 341.763L188.549 338.031V296.842V255.652L192.839 251.921C195.543 249.567 199.125 248.188 202.529 248.188C205.933 248.188 209.515 249.567 212.218 251.921Z" fill="white"/>
</g>
<defs>
<clipPath id="clip0_161_17">
<rect width="3255" height="592" fill="white"/>
</clipPath>
</defs>
</svg>
